<mxfile host="Electron" modified="2024-05-06T13:43:17.338Z" agent="Mozilla/5.0 (X11; Linux x86_64) AppleWebKit/537.36 (KHTML, like Gecko) draw.io/24.1.0 Chrome/120.0.6099.109 Electron/28.1.0 Safari/537.36" etag="z8zk0UykkloCC_jCfIme" version="24.1.0" type="device">
  <diagram name="Page-1" id="5ZX7TgxYyZlvU3amRxQg">
    <mxGraphModel dx="2206" dy="1691" grid="1" gridSize="10" guides="1" tooltips="1" connect="1" arrows="1" fold="1" page="0" pageScale="1" pageWidth="850" pageHeight="1100" math="0" shadow="0">
      <root>
        <mxCell id="0" />
        <mxCell id="1" parent="0" />
        <mxCell id="5kmShxWH9AS1d7PE3-GX-17" value="" style="rounded=0;whiteSpace=wrap;html=1;" vertex="1" parent="1">
          <mxGeometry x="105" y="760" width="865" height="700" as="geometry" />
        </mxCell>
        <mxCell id="X5GNQbbb3iFWb6tz6MKN-188" value="" style="rounded=0;whiteSpace=wrap;html=1;" parent="1" vertex="1">
          <mxGeometry x="1050" y="-100" width="970" height="791.5" as="geometry" />
        </mxCell>
        <mxCell id="X5GNQbbb3iFWb6tz6MKN-313" value="" style="rounded=0;whiteSpace=wrap;html=1;" parent="1" vertex="1">
          <mxGeometry x="1546.5" y="381.5" width="440" height="290" as="geometry" />
        </mxCell>
        <mxCell id="X5GNQbbb3iFWb6tz6MKN-311" value="" style="rounded=0;whiteSpace=wrap;html=1;" parent="1" vertex="1">
          <mxGeometry x="1546.5" y="-40" width="440" height="406" as="geometry" />
        </mxCell>
        <mxCell id="X5GNQbbb3iFWb6tz6MKN-176" value="" style="rounded=0;whiteSpace=wrap;html=1;" parent="1" vertex="1">
          <mxGeometry x="1080" y="-38.5" width="440" height="710" as="geometry" />
        </mxCell>
        <mxCell id="X5GNQbbb3iFWb6tz6MKN-1" value="" style="rounded=0;whiteSpace=wrap;html=1;" parent="1" vertex="1">
          <mxGeometry x="105" y="-98.5" width="865" height="790" as="geometry" />
        </mxCell>
        <mxCell id="2nUYefRwAOUHqMY0qum0-52" value="" style="rounded=0;whiteSpace=wrap;html=1;" parent="1" vertex="1">
          <mxGeometry x="230" y="31.5" width="620" height="570" as="geometry" />
        </mxCell>
        <mxCell id="2nUYefRwAOUHqMY0qum0-51" style="edgeStyle=orthogonalEdgeStyle;rounded=0;orthogonalLoop=1;jettySize=auto;html=1;entryX=0;entryY=0.5;entryDx=0;entryDy=0;" parent="1" source="2nUYefRwAOUHqMY0qum0-2" target="2nUYefRwAOUHqMY0qum0-46" edge="1">
          <mxGeometry relative="1" as="geometry" />
        </mxCell>
        <mxCell id="2nUYefRwAOUHqMY0qum0-2" value="Provider" style="shape=umlActor;verticalLabelPosition=bottom;verticalAlign=top;html=1;fillColor=#647687;fontColor=#ffffff;strokeColor=#314354;" parent="1" vertex="1">
          <mxGeometry x="150" y="411.5" width="30" height="60" as="geometry" />
        </mxCell>
        <mxCell id="2nUYefRwAOUHqMY0qum0-20" style="edgeStyle=orthogonalEdgeStyle;rounded=0;orthogonalLoop=1;jettySize=auto;html=1;entryX=0;entryY=0.5;entryDx=0;entryDy=0;exitX=1;exitY=0.5;exitDx=0;exitDy=0;" parent="1" source="2nUYefRwAOUHqMY0qum0-13" target="2nUYefRwAOUHqMY0qum0-19" edge="1">
          <mxGeometry relative="1" as="geometry" />
        </mxCell>
        <mxCell id="2nUYefRwAOUHqMY0qum0-21" style="edgeStyle=orthogonalEdgeStyle;rounded=0;orthogonalLoop=1;jettySize=auto;html=1;entryX=0.5;entryY=0;entryDx=0;entryDy=0;exitX=0.347;exitY=0.975;exitDx=0;exitDy=0;exitPerimeter=0;" parent="1" source="2nUYefRwAOUHqMY0qum0-6" target="2nUYefRwAOUHqMY0qum0-13" edge="1">
          <mxGeometry relative="1" as="geometry">
            <Array as="points">
              <mxPoint x="380" y="119.5" />
            </Array>
          </mxGeometry>
        </mxCell>
        <mxCell id="2nUYefRwAOUHqMY0qum0-6" value="Visualize&lt;br&gt;Products" style="ellipse;whiteSpace=wrap;html=1;fillColor=#76608a;fontColor=#ffffff;strokeColor=#432D57;" parent="1" vertex="1">
          <mxGeometry x="320" y="41.5" width="120" height="80" as="geometry" />
        </mxCell>
        <mxCell id="2nUYefRwAOUHqMY0qum0-11" style="edgeStyle=orthogonalEdgeStyle;rounded=0;orthogonalLoop=1;jettySize=auto;html=1;dashed=1;" parent="1" source="2nUYefRwAOUHqMY0qum0-7" target="2nUYefRwAOUHqMY0qum0-6" edge="1">
          <mxGeometry relative="1" as="geometry" />
        </mxCell>
        <mxCell id="2nUYefRwAOUHqMY0qum0-12" value="extends" style="edgeLabel;html=1;align=center;verticalAlign=middle;resizable=0;points=[];" parent="2nUYefRwAOUHqMY0qum0-11" vertex="1" connectable="0">
          <mxGeometry x="0.0333" y="4" relative="1" as="geometry">
            <mxPoint y="-4" as="offset" />
          </mxGeometry>
        </mxCell>
        <mxCell id="2nUYefRwAOUHqMY0qum0-7" value="Filter&amp;nbsp;&lt;br&gt;Products" style="ellipse;whiteSpace=wrap;html=1;fillColor=#76608a;fontColor=#ffffff;strokeColor=#432D57;" parent="1" vertex="1">
          <mxGeometry x="510" y="41.5" width="120" height="80" as="geometry" />
        </mxCell>
        <mxCell id="2nUYefRwAOUHqMY0qum0-15" style="edgeStyle=orthogonalEdgeStyle;rounded=0;orthogonalLoop=1;jettySize=auto;html=1;entryX=0;entryY=0.5;entryDx=0;entryDy=0;" parent="1" source="2nUYefRwAOUHqMY0qum0-8" target="2nUYefRwAOUHqMY0qum0-6" edge="1">
          <mxGeometry relative="1" as="geometry">
            <Array as="points">
              <mxPoint x="280" y="141.5" />
              <mxPoint x="280" y="81.5" />
            </Array>
          </mxGeometry>
        </mxCell>
        <mxCell id="2nUYefRwAOUHqMY0qum0-8" value="Client" style="shape=umlActor;verticalLabelPosition=bottom;verticalAlign=top;html=1;fillColor=#76608a;fontColor=#ffffff;strokeColor=#432D57;" parent="1" vertex="1">
          <mxGeometry x="150" y="111.5" width="30" height="60" as="geometry" />
        </mxCell>
        <mxCell id="2nUYefRwAOUHqMY0qum0-24" style="edgeStyle=orthogonalEdgeStyle;rounded=0;orthogonalLoop=1;jettySize=auto;html=1;entryX=0;entryY=0.5;entryDx=0;entryDy=0;" parent="1" source="2nUYefRwAOUHqMY0qum0-13" target="2nUYefRwAOUHqMY0qum0-23" edge="1">
          <mxGeometry relative="1" as="geometry" />
        </mxCell>
        <mxCell id="2nUYefRwAOUHqMY0qum0-13" value="/Authentification&lt;br&gt;/Register" style="ellipse;whiteSpace=wrap;html=1;fillColor=#76608a;fontColor=#ffffff;strokeColor=#432D57;" parent="1" vertex="1">
          <mxGeometry x="320" y="161.5" width="120" height="80" as="geometry" />
        </mxCell>
        <mxCell id="2nUYefRwAOUHqMY0qum0-19" value="Add Product" style="ellipse;whiteSpace=wrap;html=1;fillColor=#76608a;fontColor=#ffffff;strokeColor=#432D57;" parent="1" vertex="1">
          <mxGeometry x="510" y="161.5" width="120" height="80" as="geometry" />
        </mxCell>
        <mxCell id="2nUYefRwAOUHqMY0qum0-26" style="edgeStyle=orthogonalEdgeStyle;rounded=0;orthogonalLoop=1;jettySize=auto;html=1;entryX=0;entryY=0.5;entryDx=0;entryDy=0;dashed=1;" parent="1" source="2nUYefRwAOUHqMY0qum0-23" target="2nUYefRwAOUHqMY0qum0-25" edge="1">
          <mxGeometry relative="1" as="geometry" />
        </mxCell>
        <mxCell id="2nUYefRwAOUHqMY0qum0-27" value="&amp;lt;&amp;lt;include&amp;gt;&amp;gt;" style="edgeLabel;html=1;align=center;verticalAlign=middle;resizable=0;points=[];" parent="2nUYefRwAOUHqMY0qum0-26" vertex="1" connectable="0">
          <mxGeometry y="1" relative="1" as="geometry">
            <mxPoint as="offset" />
          </mxGeometry>
        </mxCell>
        <mxCell id="2nUYefRwAOUHqMY0qum0-23" value="View Cart" style="ellipse;whiteSpace=wrap;html=1;fillColor=#76608a;fontColor=#ffffff;strokeColor=#432D57;" parent="1" vertex="1">
          <mxGeometry x="510" y="271.5" width="120" height="80" as="geometry" />
        </mxCell>
        <mxCell id="2nUYefRwAOUHqMY0qum0-31" style="edgeStyle=orthogonalEdgeStyle;rounded=0;orthogonalLoop=1;jettySize=auto;html=1;entryX=0.5;entryY=1;entryDx=0;entryDy=0;dashed=1;" parent="1" source="2nUYefRwAOUHqMY0qum0-25" target="2nUYefRwAOUHqMY0qum0-28" edge="1">
          <mxGeometry relative="1" as="geometry" />
        </mxCell>
        <mxCell id="2nUYefRwAOUHqMY0qum0-32" value="&amp;lt;&amp;lt;include&amp;gt;&amp;gt;" style="edgeLabel;html=1;align=center;verticalAlign=middle;resizable=0;points=[];" parent="2nUYefRwAOUHqMY0qum0-31" vertex="1" connectable="0">
          <mxGeometry x="-0.2238" y="-2" relative="1" as="geometry">
            <mxPoint as="offset" />
          </mxGeometry>
        </mxCell>
        <mxCell id="2nUYefRwAOUHqMY0qum0-25" value="Place Order" style="ellipse;whiteSpace=wrap;html=1;fillColor=#76608a;fontColor=#ffffff;strokeColor=#432D57;" parent="1" vertex="1">
          <mxGeometry x="710" y="271.5" width="120" height="80" as="geometry" />
        </mxCell>
        <mxCell id="2nUYefRwAOUHqMY0qum0-28" value="Payment" style="ellipse;whiteSpace=wrap;html=1;fillColor=#76608a;fontColor=#ffffff;strokeColor=#432D57;" parent="1" vertex="1">
          <mxGeometry x="710" y="112.5" width="120" height="80" as="geometry" />
        </mxCell>
        <mxCell id="2nUYefRwAOUHqMY0qum0-33" value="Manage Stocks" style="ellipse;whiteSpace=wrap;html=1;fillColor=#647687;fontColor=#ffffff;strokeColor=#314354;" parent="1" vertex="1">
          <mxGeometry x="390" y="401.5" width="120" height="80" as="geometry" />
        </mxCell>
        <mxCell id="2nUYefRwAOUHqMY0qum0-43" style="edgeStyle=orthogonalEdgeStyle;rounded=0;orthogonalLoop=1;jettySize=auto;html=1;" parent="1" source="2nUYefRwAOUHqMY0qum0-35" target="2nUYefRwAOUHqMY0qum0-42" edge="1">
          <mxGeometry relative="1" as="geometry" />
        </mxCell>
        <mxCell id="2nUYefRwAOUHqMY0qum0-35" value="Administrator" style="shape=umlActor;verticalLabelPosition=bottom;verticalAlign=top;html=1;fillColor=#6d8764;fontColor=#ffffff;strokeColor=#3A5431;" parent="1" vertex="1">
          <mxGeometry x="900" y="411.5" width="30" height="60" as="geometry" />
        </mxCell>
        <mxCell id="2nUYefRwAOUHqMY0qum0-36" value="User Management" style="ellipse;whiteSpace=wrap;html=1;fillColor=#6d8764;fontColor=#ffffff;strokeColor=#3A5431;" parent="1" vertex="1">
          <mxGeometry x="550" y="511.5" width="120" height="80" as="geometry" />
        </mxCell>
        <mxCell id="2nUYefRwAOUHqMY0qum0-38" value="Data Visualization" style="ellipse;whiteSpace=wrap;html=1;fillColor=#6d8764;fontColor=#ffffff;strokeColor=#3A5431;" parent="1" vertex="1">
          <mxGeometry x="550" y="401.5" width="120" height="80" as="geometry" />
        </mxCell>
        <mxCell id="2nUYefRwAOUHqMY0qum0-44" style="edgeStyle=orthogonalEdgeStyle;rounded=0;orthogonalLoop=1;jettySize=auto;html=1;entryX=1;entryY=0.5;entryDx=0;entryDy=0;" parent="1" source="2nUYefRwAOUHqMY0qum0-42" target="2nUYefRwAOUHqMY0qum0-38" edge="1">
          <mxGeometry relative="1" as="geometry" />
        </mxCell>
        <mxCell id="2nUYefRwAOUHqMY0qum0-45" style="edgeStyle=orthogonalEdgeStyle;rounded=0;orthogonalLoop=1;jettySize=auto;html=1;entryX=1;entryY=0.5;entryDx=0;entryDy=0;" parent="1" source="2nUYefRwAOUHqMY0qum0-42" target="2nUYefRwAOUHqMY0qum0-36" edge="1">
          <mxGeometry relative="1" as="geometry" />
        </mxCell>
        <mxCell id="2nUYefRwAOUHqMY0qum0-42" value="Authentification" style="ellipse;whiteSpace=wrap;html=1;fillColor=#6d8764;fontColor=#ffffff;strokeColor=#3A5431;" parent="1" vertex="1">
          <mxGeometry x="710" y="401.5" width="120" height="80" as="geometry" />
        </mxCell>
        <mxCell id="2nUYefRwAOUHqMY0qum0-47" style="edgeStyle=orthogonalEdgeStyle;rounded=0;orthogonalLoop=1;jettySize=auto;html=1;entryX=0;entryY=0.5;entryDx=0;entryDy=0;" parent="1" source="2nUYefRwAOUHqMY0qum0-46" target="2nUYefRwAOUHqMY0qum0-33" edge="1">
          <mxGeometry relative="1" as="geometry" />
        </mxCell>
        <mxCell id="2nUYefRwAOUHqMY0qum0-48" value="" style="edgeStyle=orthogonalEdgeStyle;rounded=0;orthogonalLoop=1;jettySize=auto;html=1;" parent="1" source="2nUYefRwAOUHqMY0qum0-46" target="2nUYefRwAOUHqMY0qum0-33" edge="1">
          <mxGeometry relative="1" as="geometry" />
        </mxCell>
        <mxCell id="2nUYefRwAOUHqMY0qum0-46" value="Authentification" style="ellipse;whiteSpace=wrap;html=1;fillColor=#647687;fontColor=#ffffff;strokeColor=#314354;" parent="1" vertex="1">
          <mxGeometry x="240" y="401.5" width="120" height="80" as="geometry" />
        </mxCell>
        <mxCell id="2nUYefRwAOUHqMY0qum0-53" value="PETSHOP USE-CASE DIAGRAM&amp;nbsp;" style="rounded=0;whiteSpace=wrap;html=1;" parent="1" vertex="1">
          <mxGeometry x="105" y="-100" width="190" height="30" as="geometry" />
        </mxCell>
        <mxCell id="X5GNQbbb3iFWb6tz6MKN-2" value="" style="ellipse;html=1;shape=startState;fillColor=#000000;strokeColor=#A680B8;" parent="1" vertex="1">
          <mxGeometry x="1221" y="23" width="30" height="30" as="geometry" />
        </mxCell>
        <mxCell id="X5GNQbbb3iFWb6tz6MKN-6" style="edgeStyle=orthogonalEdgeStyle;rounded=0;orthogonalLoop=1;jettySize=auto;html=1;exitX=0.5;exitY=1;exitDx=0;exitDy=0;" parent="1" edge="1">
          <mxGeometry relative="1" as="geometry">
            <mxPoint x="1341.5" y="50.5" as="sourcePoint" />
            <mxPoint x="1341.5" y="50.5" as="targetPoint" />
          </mxGeometry>
        </mxCell>
        <mxCell id="X5GNQbbb3iFWb6tz6MKN-71" style="edgeStyle=orthogonalEdgeStyle;rounded=0;orthogonalLoop=1;jettySize=auto;html=1;entryX=0.5;entryY=0;entryDx=0;entryDy=0;" parent="1" source="X5GNQbbb3iFWb6tz6MKN-16" target="X5GNQbbb3iFWb6tz6MKN-70" edge="1">
          <mxGeometry relative="1" as="geometry">
            <Array as="points">
              <mxPoint x="1239" y="265.5" />
            </Array>
          </mxGeometry>
        </mxCell>
        <mxCell id="X5GNQbbb3iFWb6tz6MKN-140" style="edgeStyle=orthogonalEdgeStyle;rounded=0;orthogonalLoop=1;jettySize=auto;html=1;exitX=0.545;exitY=1.011;exitDx=0;exitDy=0;exitPerimeter=0;entryX=0.5;entryY=0;entryDx=0;entryDy=0;" parent="1" source="X5GNQbbb3iFWb6tz6MKN-16" target="X5GNQbbb3iFWb6tz6MKN-141" edge="1">
          <mxGeometry relative="1" as="geometry">
            <mxPoint x="1331" y="305.5" as="targetPoint" />
            <Array as="points">
              <mxPoint x="1239" y="255.5" />
              <mxPoint x="1327" y="255.5" />
              <mxPoint x="1327" y="275.5" />
            </Array>
          </mxGeometry>
        </mxCell>
        <mxCell id="X5GNQbbb3iFWb6tz6MKN-16" value="Visualize Products" style="rounded=1;whiteSpace=wrap;html=1;arcSize=40;fontColor=#000000;fillColor=#A680B8;strokeColor=#A680B8;" parent="1" vertex="1">
          <mxGeometry x="1206" y="198" width="60" height="40" as="geometry" />
        </mxCell>
        <mxCell id="X5GNQbbb3iFWb6tz6MKN-170" style="edgeStyle=orthogonalEdgeStyle;rounded=0;orthogonalLoop=1;jettySize=auto;html=1;entryX=1;entryY=0.5;entryDx=0;entryDy=0;" parent="1" source="X5GNQbbb3iFWb6tz6MKN-30" target="X5GNQbbb3iFWb6tz6MKN-154" edge="1">
          <mxGeometry relative="1" as="geometry" />
        </mxCell>
        <mxCell id="X5GNQbbb3iFWb6tz6MKN-30" value="Register" style="rounded=1;whiteSpace=wrap;html=1;arcSize=40;fontColor=#000000;fillColor=#A680B8;strokeColor=#A680B8;" parent="1" vertex="1">
          <mxGeometry x="1386.5" y="155.5" width="60" height="15" as="geometry" />
        </mxCell>
        <mxCell id="X5GNQbbb3iFWb6tz6MKN-185" style="edgeStyle=orthogonalEdgeStyle;rounded=0;orthogonalLoop=1;jettySize=auto;html=1;exitX=0.25;exitY=0.5;exitDx=0;exitDy=0;exitPerimeter=0;entryX=0.5;entryY=0;entryDx=0;entryDy=0;" parent="1" source="X5GNQbbb3iFWb6tz6MKN-41" target="X5GNQbbb3iFWb6tz6MKN-184" edge="1">
          <mxGeometry relative="1" as="geometry">
            <Array as="points">
              <mxPoint x="1211" y="360.5" />
            </Array>
          </mxGeometry>
        </mxCell>
        <mxCell id="X5GNQbbb3iFWb6tz6MKN-187" style="edgeStyle=orthogonalEdgeStyle;rounded=0;orthogonalLoop=1;jettySize=auto;html=1;entryX=0.5;entryY=0;entryDx=0;entryDy=0;exitX=0.518;exitY=0.476;exitDx=0;exitDy=0;exitPerimeter=0;" parent="1" source="X5GNQbbb3iFWb6tz6MKN-41" target="X5GNQbbb3iFWb6tz6MKN-56" edge="1">
          <mxGeometry relative="1" as="geometry">
            <Array as="points" />
          </mxGeometry>
        </mxCell>
        <mxCell id="X5GNQbbb3iFWb6tz6MKN-41" value="" style="shape=line;html=1;strokeWidth=6;strokeColor=#432D57;fillColor=#76608a;fontColor=#ffffff;" parent="1" vertex="1">
          <mxGeometry x="1181" y="355.5" width="180" height="10" as="geometry" />
        </mxCell>
        <mxCell id="X5GNQbbb3iFWb6tz6MKN-149" style="edgeStyle=orthogonalEdgeStyle;rounded=0;orthogonalLoop=1;jettySize=auto;html=1;entryX=0.5;entryY=1;entryDx=0;entryDy=0;" parent="1" source="X5GNQbbb3iFWb6tz6MKN-43" target="X5GNQbbb3iFWb6tz6MKN-147" edge="1">
          <mxGeometry relative="1" as="geometry" />
        </mxCell>
        <mxCell id="X5GNQbbb3iFWb6tz6MKN-43" value="Login" style="rounded=1;whiteSpace=wrap;html=1;arcSize=40;fontColor=#000000;fillColor=#A680B8;strokeColor=#A680B8;" parent="1" vertex="1">
          <mxGeometry x="1389" y="294.25" width="55" height="12.5" as="geometry" />
        </mxCell>
        <mxCell id="X5GNQbbb3iFWb6tz6MKN-65" style="edgeStyle=orthogonalEdgeStyle;rounded=0;orthogonalLoop=1;jettySize=auto;html=1;entryX=0;entryY=0.5;entryDx=0;entryDy=0;" parent="1" source="X5GNQbbb3iFWb6tz6MKN-56" target="X5GNQbbb3iFWb6tz6MKN-64" edge="1">
          <mxGeometry relative="1" as="geometry" />
        </mxCell>
        <mxCell id="X5GNQbbb3iFWb6tz6MKN-91" style="edgeStyle=orthogonalEdgeStyle;rounded=0;orthogonalLoop=1;jettySize=auto;html=1;entryX=0;entryY=0.5;entryDx=0;entryDy=0;exitX=0;exitY=0.25;exitDx=0;exitDy=0;" parent="1" source="X5GNQbbb3iFWb6tz6MKN-56" target="X5GNQbbb3iFWb6tz6MKN-16" edge="1">
          <mxGeometry relative="1" as="geometry">
            <Array as="points">
              <mxPoint x="1141" y="445.5" />
              <mxPoint x="1141" y="217.5" />
            </Array>
          </mxGeometry>
        </mxCell>
        <mxCell id="X5GNQbbb3iFWb6tz6MKN-56" value="Visualize&amp;nbsp;&lt;div&gt;Cart&lt;/div&gt;" style="rounded=1;whiteSpace=wrap;html=1;arcSize=40;fontColor=#000000;fillColor=#A680B8;strokeColor=#A680B8;" parent="1" vertex="1">
          <mxGeometry x="1239" y="435.5" width="70" height="40" as="geometry" />
        </mxCell>
        <mxCell id="X5GNQbbb3iFWb6tz6MKN-66" style="edgeStyle=orthogonalEdgeStyle;rounded=0;orthogonalLoop=1;jettySize=auto;html=1;entryX=0;entryY=0.5;entryDx=0;entryDy=0;" parent="1" source="X5GNQbbb3iFWb6tz6MKN-64" target="X5GNQbbb3iFWb6tz6MKN-88" edge="1">
          <mxGeometry relative="1" as="geometry">
            <mxPoint x="1479" y="455.5" as="targetPoint" />
          </mxGeometry>
        </mxCell>
        <mxCell id="X5GNQbbb3iFWb6tz6MKN-67" value="NO" style="edgeLabel;html=1;align=center;verticalAlign=middle;resizable=0;points=[];" parent="X5GNQbbb3iFWb6tz6MKN-66" vertex="1" connectable="0">
          <mxGeometry x="-0.2376" y="1" relative="1" as="geometry">
            <mxPoint x="-6" y="1" as="offset" />
          </mxGeometry>
        </mxCell>
        <mxCell id="X5GNQbbb3iFWb6tz6MKN-103" style="edgeStyle=orthogonalEdgeStyle;rounded=0;orthogonalLoop=1;jettySize=auto;html=1;entryX=0.75;entryY=1;entryDx=0;entryDy=0;" parent="1" source="X5GNQbbb3iFWb6tz6MKN-64" target="X5GNQbbb3iFWb6tz6MKN-56" edge="1">
          <mxGeometry relative="1" as="geometry">
            <Array as="points">
              <mxPoint x="1369" y="495.5" />
              <mxPoint x="1292" y="495.5" />
            </Array>
          </mxGeometry>
        </mxCell>
        <mxCell id="X5GNQbbb3iFWb6tz6MKN-104" value="yes" style="edgeLabel;html=1;align=center;verticalAlign=middle;resizable=0;points=[];" parent="X5GNQbbb3iFWb6tz6MKN-103" vertex="1" connectable="0">
          <mxGeometry x="-0.0431" relative="1" as="geometry">
            <mxPoint as="offset" />
          </mxGeometry>
        </mxCell>
        <mxCell id="X5GNQbbb3iFWb6tz6MKN-64" value="Cart&amp;nbsp;&amp;nbsp;&lt;br&gt;Empty?" style="rhombus;whiteSpace=wrap;html=1;fontColor=#000000;fillColor=#A680B8;strokeColor=#A680B8;" parent="1" vertex="1">
          <mxGeometry x="1334" y="425.5" width="70" height="60" as="geometry" />
        </mxCell>
        <mxCell id="X5GNQbbb3iFWb6tz6MKN-86" style="edgeStyle=orthogonalEdgeStyle;rounded=0;orthogonalLoop=1;jettySize=auto;html=1;entryX=0;entryY=0.5;entryDx=0;entryDy=0;" parent="1" source="X5GNQbbb3iFWb6tz6MKN-70" target="X5GNQbbb3iFWb6tz6MKN-16" edge="1">
          <mxGeometry relative="1" as="geometry">
            <Array as="points">
              <mxPoint x="1186" y="300.5" />
              <mxPoint x="1186" y="217.5" />
            </Array>
          </mxGeometry>
        </mxCell>
        <mxCell id="X5GNQbbb3iFWb6tz6MKN-70" value="Add Product" style="rounded=1;whiteSpace=wrap;html=1;arcSize=40;fontColor=#000000;fillColor=#A680B8;strokeColor=#A680B8;" parent="1" vertex="1">
          <mxGeometry x="1206" y="285.5" width="65" height="30" as="geometry" />
        </mxCell>
        <mxCell id="X5GNQbbb3iFWb6tz6MKN-80" style="edgeStyle=orthogonalEdgeStyle;rounded=0;orthogonalLoop=1;jettySize=auto;html=1;entryX=0.317;entryY=0.238;entryDx=0;entryDy=0;entryPerimeter=0;" parent="1" source="X5GNQbbb3iFWb6tz6MKN-70" target="X5GNQbbb3iFWb6tz6MKN-41" edge="1">
          <mxGeometry relative="1" as="geometry">
            <mxPoint x="1235" y="365.5" as="targetPoint" />
          </mxGeometry>
        </mxCell>
        <mxCell id="X5GNQbbb3iFWb6tz6MKN-90" style="edgeStyle=orthogonalEdgeStyle;rounded=0;orthogonalLoop=1;jettySize=auto;html=1;entryX=0.75;entryY=0;entryDx=0;entryDy=0;exitX=0.75;exitY=1;exitDx=0;exitDy=0;" parent="1" source="X5GNQbbb3iFWb6tz6MKN-88" target="X5GNQbbb3iFWb6tz6MKN-89" edge="1">
          <mxGeometry relative="1" as="geometry" />
        </mxCell>
        <mxCell id="X5GNQbbb3iFWb6tz6MKN-88" value="Insert Personal&lt;br&gt;Info" style="rounded=1;whiteSpace=wrap;html=1;arcSize=40;fontColor=#000000;fillColor=#A680B8;strokeColor=#A680B8;" parent="1" vertex="1">
          <mxGeometry x="1436.5" y="435.5" width="70" height="40" as="geometry" />
        </mxCell>
        <mxCell id="X5GNQbbb3iFWb6tz6MKN-98" style="edgeStyle=orthogonalEdgeStyle;rounded=0;orthogonalLoop=1;jettySize=auto;html=1;" parent="1" source="X5GNQbbb3iFWb6tz6MKN-89" target="X5GNQbbb3iFWb6tz6MKN-94" edge="1">
          <mxGeometry relative="1" as="geometry" />
        </mxCell>
        <mxCell id="X5GNQbbb3iFWb6tz6MKN-89" value="Payment" style="rounded=1;whiteSpace=wrap;html=1;arcSize=40;fontColor=#000000;fillColor=#A680B8;strokeColor=#A680B8;" parent="1" vertex="1">
          <mxGeometry x="1436.5" y="545.5" width="70" height="40" as="geometry" />
        </mxCell>
        <mxCell id="X5GNQbbb3iFWb6tz6MKN-99" style="edgeStyle=orthogonalEdgeStyle;rounded=0;orthogonalLoop=1;jettySize=auto;html=1;entryX=0;entryY=0.75;entryDx=0;entryDy=0;" parent="1" source="X5GNQbbb3iFWb6tz6MKN-94" target="X5GNQbbb3iFWb6tz6MKN-56" edge="1">
          <mxGeometry relative="1" as="geometry">
            <Array as="points">
              <mxPoint x="1390" y="515.5" />
              <mxPoint x="1219" y="515.5" />
              <mxPoint x="1219" y="465.5" />
            </Array>
          </mxGeometry>
        </mxCell>
        <mxCell id="X5GNQbbb3iFWb6tz6MKN-100" value="Fail" style="edgeLabel;html=1;align=center;verticalAlign=middle;resizable=0;points=[];" parent="X5GNQbbb3iFWb6tz6MKN-99" vertex="1" connectable="0">
          <mxGeometry x="-0.5254" y="-1" relative="1" as="geometry">
            <mxPoint x="-24" as="offset" />
          </mxGeometry>
        </mxCell>
        <mxCell id="X5GNQbbb3iFWb6tz6MKN-94" value="Status?" style="rhombus;whiteSpace=wrap;html=1;fontColor=#000000;fillColor=#A680B8;strokeColor=#A680B8;" parent="1" vertex="1">
          <mxGeometry x="1362" y="550.5" width="55" height="30" as="geometry" />
        </mxCell>
        <mxCell id="X5GNQbbb3iFWb6tz6MKN-127" style="edgeStyle=orthogonalEdgeStyle;rounded=0;orthogonalLoop=1;jettySize=auto;html=1;entryX=1;entryY=0.5;entryDx=0;entryDy=0;" parent="1" source="X5GNQbbb3iFWb6tz6MKN-113" target="X5GNQbbb3iFWb6tz6MKN-122" edge="1">
          <mxGeometry relative="1" as="geometry" />
        </mxCell>
        <mxCell id="X5GNQbbb3iFWb6tz6MKN-113" value="Update&lt;br&gt;Shiping&lt;br&gt;Details" style="rounded=1;whiteSpace=wrap;html=1;arcSize=40;fontColor=#000000;fillColor=#A680B8;strokeColor=#A680B8;" parent="1" vertex="1">
          <mxGeometry x="1209" y="575.5" width="70" height="40" as="geometry" />
        </mxCell>
        <mxCell id="X5GNQbbb3iFWb6tz6MKN-115" style="edgeStyle=orthogonalEdgeStyle;rounded=0;orthogonalLoop=1;jettySize=auto;html=1;entryX=1;entryY=0.5;entryDx=0;entryDy=0;" parent="1" source="X5GNQbbb3iFWb6tz6MKN-94" target="X5GNQbbb3iFWb6tz6MKN-124" edge="1">
          <mxGeometry relative="1" as="geometry">
            <mxPoint x="1350.62" y="618.06" as="targetPoint" />
          </mxGeometry>
        </mxCell>
        <mxCell id="X5GNQbbb3iFWb6tz6MKN-116" value="ok" style="edgeLabel;html=1;align=center;verticalAlign=middle;resizable=0;points=[];" parent="X5GNQbbb3iFWb6tz6MKN-115" vertex="1" connectable="0">
          <mxGeometry x="-0.173" relative="1" as="geometry">
            <mxPoint as="offset" />
          </mxGeometry>
        </mxCell>
        <mxCell id="X5GNQbbb3iFWb6tz6MKN-128" style="edgeStyle=orthogonalEdgeStyle;rounded=0;orthogonalLoop=1;jettySize=auto;html=1;entryX=1;entryY=0.5;entryDx=0;entryDy=0;" parent="1" source="X5GNQbbb3iFWb6tz6MKN-118" target="X5GNQbbb3iFWb6tz6MKN-120" edge="1">
          <mxGeometry relative="1" as="geometry" />
        </mxCell>
        <mxCell id="X5GNQbbb3iFWb6tz6MKN-118" value="Place&lt;br&gt;order" style="rounded=1;whiteSpace=wrap;html=1;arcSize=40;fontColor=#000000;fillColor=#A680B8;strokeColor=#A680B8;" parent="1" vertex="1">
          <mxGeometry x="1209" y="525.5" width="70" height="30" as="geometry" />
        </mxCell>
        <mxCell id="X5GNQbbb3iFWb6tz6MKN-120" value="Update&lt;br&gt;Invetory" style="rounded=1;whiteSpace=wrap;html=1;arcSize=40;fontColor=#000000;fillColor=#A680B8;strokeColor=#A680B8;" parent="1" vertex="1">
          <mxGeometry x="1119" y="520.5" width="70" height="40" as="geometry" />
        </mxCell>
        <mxCell id="X5GNQbbb3iFWb6tz6MKN-122" value="Update&lt;br&gt;Statistics" style="rounded=1;whiteSpace=wrap;html=1;arcSize=40;fontColor=#000000;fillColor=#A680B8;strokeColor=#A680B8;" parent="1" vertex="1">
          <mxGeometry x="1119" y="575.5" width="70" height="40" as="geometry" />
        </mxCell>
        <mxCell id="X5GNQbbb3iFWb6tz6MKN-125" style="edgeStyle=orthogonalEdgeStyle;rounded=0;orthogonalLoop=1;jettySize=auto;html=1;entryX=1;entryY=0.5;entryDx=0;entryDy=0;" parent="1" source="X5GNQbbb3iFWb6tz6MKN-124" target="X5GNQbbb3iFWb6tz6MKN-118" edge="1">
          <mxGeometry relative="1" as="geometry">
            <Array as="points">
              <mxPoint x="1299" y="565.5" />
              <mxPoint x="1299" y="540.5" />
            </Array>
          </mxGeometry>
        </mxCell>
        <mxCell id="X5GNQbbb3iFWb6tz6MKN-126" style="edgeStyle=orthogonalEdgeStyle;rounded=0;orthogonalLoop=1;jettySize=auto;html=1;entryX=1;entryY=0.5;entryDx=0;entryDy=0;" parent="1" source="X5GNQbbb3iFWb6tz6MKN-124" target="X5GNQbbb3iFWb6tz6MKN-113" edge="1">
          <mxGeometry relative="1" as="geometry">
            <Array as="points">
              <mxPoint x="1299" y="565.5" />
              <mxPoint x="1299" y="595.5" />
            </Array>
          </mxGeometry>
        </mxCell>
        <mxCell id="X5GNQbbb3iFWb6tz6MKN-124" value="" style="rounded=0;whiteSpace=wrap;html=1;fillColor=#432D57;fontColor=#ffffff;strokeColor=#432D57;" parent="1" vertex="1">
          <mxGeometry x="1309" y="535.5" width="10" height="60" as="geometry" />
        </mxCell>
        <mxCell id="X5GNQbbb3iFWb6tz6MKN-132" style="edgeStyle=orthogonalEdgeStyle;rounded=0;orthogonalLoop=1;jettySize=auto;html=1;entryX=0;entryY=0.5;entryDx=0;entryDy=0;exitX=0.475;exitY=0.2;exitDx=0;exitDy=0;exitPerimeter=0;" parent="1" source="X5GNQbbb3iFWb6tz6MKN-129" target="X5GNQbbb3iFWb6tz6MKN-16" edge="1">
          <mxGeometry relative="1" as="geometry">
            <Array as="points">
              <mxPoint x="1142" y="432.5" />
              <mxPoint x="1141" y="432.5" />
              <mxPoint x="1141" y="217.5" />
            </Array>
          </mxGeometry>
        </mxCell>
        <mxCell id="X5GNQbbb3iFWb6tz6MKN-129" value="" style="shape=line;html=1;strokeWidth=6;strokeColor=#432D57;fillColor=#76608a;fontColor=#ffffff;" parent="1" vertex="1">
          <mxGeometry x="1099" y="460.5" width="90" height="10" as="geometry" />
        </mxCell>
        <mxCell id="X5GNQbbb3iFWb6tz6MKN-130" style="edgeStyle=orthogonalEdgeStyle;rounded=0;orthogonalLoop=1;jettySize=auto;html=1;entryX=0.75;entryY=0.5;entryDx=0;entryDy=0;entryPerimeter=0;exitX=0.684;exitY=-0.007;exitDx=0;exitDy=0;exitPerimeter=0;" parent="1" source="X5GNQbbb3iFWb6tz6MKN-120" target="X5GNQbbb3iFWb6tz6MKN-129" edge="1">
          <mxGeometry relative="1" as="geometry">
            <Array as="points">
              <mxPoint x="1167" y="495.5" />
            </Array>
          </mxGeometry>
        </mxCell>
        <mxCell id="X5GNQbbb3iFWb6tz6MKN-131" style="edgeStyle=orthogonalEdgeStyle;rounded=0;orthogonalLoop=1;jettySize=auto;html=1;entryX=0.113;entryY=0.886;entryDx=0;entryDy=0;entryPerimeter=0;" parent="1" source="X5GNQbbb3iFWb6tz6MKN-122" target="X5GNQbbb3iFWb6tz6MKN-129" edge="1">
          <mxGeometry relative="1" as="geometry">
            <Array as="points">
              <mxPoint x="1109" y="595.5" />
            </Array>
          </mxGeometry>
        </mxCell>
        <mxCell id="X5GNQbbb3iFWb6tz6MKN-134" value="" style="shape=note;whiteSpace=wrap;html=1;backgroundOutline=1;darkOpacity=0.05;fillColor=#76608a;fontColor=#ffffff;strokeColor=#432D57;" parent="1" vertex="1">
          <mxGeometry x="1303.5" y="5.5" width="80" height="65" as="geometry" />
        </mxCell>
        <mxCell id="X5GNQbbb3iFWb6tz6MKN-138" style="edgeStyle=orthogonalEdgeStyle;rounded=0;orthogonalLoop=1;jettySize=auto;html=1;entryX=1;entryY=0.5;entryDx=0;entryDy=0;" parent="1" source="X5GNQbbb3iFWb6tz6MKN-133" target="X5GNQbbb3iFWb6tz6MKN-2" edge="1">
          <mxGeometry relative="1" as="geometry" />
        </mxCell>
        <mxCell id="X5GNQbbb3iFWb6tz6MKN-133" value="&lt;font color=&quot;#000000&quot;&gt;Client&lt;/font&gt;&lt;br style=&quot;color: rgb(0, 0, 0);&quot;&gt;&lt;span style=&quot;color: rgb(0, 0, 0);&quot;&gt;Open Interface&lt;/span&gt;" style="text;html=1;align=center;verticalAlign=middle;whiteSpace=wrap;rounded=0;" parent="1" vertex="1">
          <mxGeometry x="1298.5" y="5.5" width="60" height="65" as="geometry" />
        </mxCell>
        <mxCell id="X5GNQbbb3iFWb6tz6MKN-145" style="edgeStyle=orthogonalEdgeStyle;rounded=0;orthogonalLoop=1;jettySize=auto;html=1;entryX=0;entryY=0.5;entryDx=0;entryDy=0;" parent="1" source="X5GNQbbb3iFWb6tz6MKN-141" target="X5GNQbbb3iFWb6tz6MKN-43" edge="1">
          <mxGeometry relative="1" as="geometry" />
        </mxCell>
        <mxCell id="X5GNQbbb3iFWb6tz6MKN-146" value="no" style="edgeLabel;html=1;align=center;verticalAlign=middle;resizable=0;points=[];" parent="X5GNQbbb3iFWb6tz6MKN-145" vertex="1" connectable="0">
          <mxGeometry x="-0.4902" relative="1" as="geometry">
            <mxPoint x="4" as="offset" />
          </mxGeometry>
        </mxCell>
        <mxCell id="X5GNQbbb3iFWb6tz6MKN-141" value="Logged &lt;br&gt;In?" style="rhombus;whiteSpace=wrap;html=1;fontColor=#000000;fillColor=#A680B8;strokeColor=#A680B8;" parent="1" vertex="1">
          <mxGeometry x="1298.5" y="276.5" width="57.5" height="50" as="geometry" />
        </mxCell>
        <mxCell id="X5GNQbbb3iFWb6tz6MKN-143" style="edgeStyle=orthogonalEdgeStyle;rounded=0;orthogonalLoop=1;jettySize=auto;html=1;" parent="1" source="X5GNQbbb3iFWb6tz6MKN-141" edge="1">
          <mxGeometry relative="1" as="geometry">
            <mxPoint x="1327" y="355.5" as="targetPoint" />
            <Array as="points">
              <mxPoint x="1327" y="355.5" />
              <mxPoint x="1327" y="355.5" />
            </Array>
          </mxGeometry>
        </mxCell>
        <mxCell id="X5GNQbbb3iFWb6tz6MKN-144" value="yes" style="edgeLabel;html=1;align=center;verticalAlign=middle;resizable=0;points=[];" parent="X5GNQbbb3iFWb6tz6MKN-143" vertex="1" connectable="0">
          <mxGeometry x="-0.0259" y="-1" relative="1" as="geometry">
            <mxPoint x="2" y="-5" as="offset" />
          </mxGeometry>
        </mxCell>
        <mxCell id="X5GNQbbb3iFWb6tz6MKN-161" style="edgeStyle=orthogonalEdgeStyle;rounded=0;orthogonalLoop=1;jettySize=auto;html=1;entryX=1;entryY=0.5;entryDx=0;entryDy=0;" parent="1" source="X5GNQbbb3iFWb6tz6MKN-147" target="X5GNQbbb3iFWb6tz6MKN-16" edge="1">
          <mxGeometry relative="1" as="geometry">
            <Array as="points">
              <mxPoint x="1371" y="245.5" />
              <mxPoint x="1371" y="217.5" />
            </Array>
          </mxGeometry>
        </mxCell>
        <mxCell id="X5GNQbbb3iFWb6tz6MKN-165" style="edgeStyle=orthogonalEdgeStyle;rounded=0;orthogonalLoop=1;jettySize=auto;html=1;entryX=1;entryY=0.5;entryDx=0;entryDy=0;exitX=1;exitY=0.5;exitDx=0;exitDy=0;" parent="1" source="X5GNQbbb3iFWb6tz6MKN-147" target="X5GNQbbb3iFWb6tz6MKN-43" edge="1">
          <mxGeometry relative="1" as="geometry">
            <Array as="points">
              <mxPoint x="1461" y="245.5" />
              <mxPoint x="1461" y="300.5" />
            </Array>
          </mxGeometry>
        </mxCell>
        <mxCell id="X5GNQbbb3iFWb6tz6MKN-166" value="nok" style="edgeLabel;html=1;align=center;verticalAlign=middle;resizable=0;points=[];" parent="X5GNQbbb3iFWb6tz6MKN-165" vertex="1" connectable="0">
          <mxGeometry x="0.1597" y="-1" relative="1" as="geometry">
            <mxPoint as="offset" />
          </mxGeometry>
        </mxCell>
        <mxCell id="X5GNQbbb3iFWb6tz6MKN-168" style="edgeStyle=orthogonalEdgeStyle;rounded=0;orthogonalLoop=1;jettySize=auto;html=1;" parent="1" source="X5GNQbbb3iFWb6tz6MKN-147" target="X5GNQbbb3iFWb6tz6MKN-30" edge="1">
          <mxGeometry relative="1" as="geometry" />
        </mxCell>
        <mxCell id="X5GNQbbb3iFWb6tz6MKN-169" value="unregr" style="edgeLabel;html=1;align=center;verticalAlign=middle;resizable=0;points=[];" parent="X5GNQbbb3iFWb6tz6MKN-168" vertex="1" connectable="0">
          <mxGeometry x="0.1539" relative="1" as="geometry">
            <mxPoint as="offset" />
          </mxGeometry>
        </mxCell>
        <mxCell id="X5GNQbbb3iFWb6tz6MKN-147" value="&lt;font style=&quot;font-size: 10px;&quot;&gt;Status?&lt;/font&gt;" style="rhombus;whiteSpace=wrap;html=1;fontColor=#000000;fillColor=#A680B8;strokeColor=#A680B8;" parent="1" vertex="1">
          <mxGeometry x="1394" y="225.5" width="45" height="40" as="geometry" />
        </mxCell>
        <mxCell id="X5GNQbbb3iFWb6tz6MKN-171" style="edgeStyle=orthogonalEdgeStyle;rounded=0;orthogonalLoop=1;jettySize=auto;html=1;entryX=0.5;entryY=0;entryDx=0;entryDy=0;exitX=0.5;exitY=0;exitDx=0;exitDy=0;" parent="1" source="X5GNQbbb3iFWb6tz6MKN-154" target="X5GNQbbb3iFWb6tz6MKN-30" edge="1">
          <mxGeometry relative="1" as="geometry">
            <Array as="points">
              <mxPoint x="1328" y="135.5" />
              <mxPoint x="1416" y="135.5" />
            </Array>
          </mxGeometry>
        </mxCell>
        <mxCell id="X5GNQbbb3iFWb6tz6MKN-172" value="nok" style="edgeLabel;html=1;align=center;verticalAlign=middle;resizable=0;points=[];" parent="X5GNQbbb3iFWb6tz6MKN-171" vertex="1" connectable="0">
          <mxGeometry x="-0.0442" relative="1" as="geometry">
            <mxPoint as="offset" />
          </mxGeometry>
        </mxCell>
        <mxCell id="X5GNQbbb3iFWb6tz6MKN-173" style="edgeStyle=orthogonalEdgeStyle;rounded=0;orthogonalLoop=1;jettySize=auto;html=1;entryX=1;entryY=0.5;entryDx=0;entryDy=0;" parent="1" source="X5GNQbbb3iFWb6tz6MKN-154" target="X5GNQbbb3iFWb6tz6MKN-16" edge="1">
          <mxGeometry relative="1" as="geometry">
            <Array as="points">
              <mxPoint x="1301" y="163.5" />
              <mxPoint x="1301" y="218.5" />
            </Array>
          </mxGeometry>
        </mxCell>
        <mxCell id="X5GNQbbb3iFWb6tz6MKN-174" value="ok" style="edgeLabel;html=1;align=center;verticalAlign=middle;resizable=0;points=[];" parent="X5GNQbbb3iFWb6tz6MKN-173" vertex="1" connectable="0">
          <mxGeometry x="0.6392" y="-1" relative="1" as="geometry">
            <mxPoint x="9" y="1" as="offset" />
          </mxGeometry>
        </mxCell>
        <mxCell id="X5GNQbbb3iFWb6tz6MKN-154" value="&lt;font style=&quot;font-size: 10px;&quot;&gt;Status?&lt;/font&gt;" style="rhombus;whiteSpace=wrap;html=1;fontColor=#000000;fillColor=#A680B8;strokeColor=#A680B8;" parent="1" vertex="1">
          <mxGeometry x="1306" y="143" width="45" height="40" as="geometry" />
        </mxCell>
        <mxCell id="X5GNQbbb3iFWb6tz6MKN-177" value="Client Activity Diagram" style="rounded=0;whiteSpace=wrap;html=1;" parent="1" vertex="1">
          <mxGeometry x="1081" y="-38.5" width="171" height="30" as="geometry" />
        </mxCell>
        <mxCell id="X5GNQbbb3iFWb6tz6MKN-182" style="edgeStyle=orthogonalEdgeStyle;rounded=0;orthogonalLoop=1;jettySize=auto;html=1;entryX=0.5;entryY=0;entryDx=0;entryDy=0;" parent="1" source="X5GNQbbb3iFWb6tz6MKN-180" target="X5GNQbbb3iFWb6tz6MKN-30" edge="1">
          <mxGeometry relative="1" as="geometry">
            <Array as="points">
              <mxPoint x="1301" y="115.5" />
              <mxPoint x="1416" y="115.5" />
            </Array>
          </mxGeometry>
        </mxCell>
        <mxCell id="X5GNQbbb3iFWb6tz6MKN-183" style="edgeStyle=orthogonalEdgeStyle;rounded=0;orthogonalLoop=1;jettySize=auto;html=1;entryX=0.5;entryY=0;entryDx=0;entryDy=0;" parent="1" source="X5GNQbbb3iFWb6tz6MKN-180" target="X5GNQbbb3iFWb6tz6MKN-16" edge="1">
          <mxGeometry relative="1" as="geometry">
            <Array as="points">
              <mxPoint x="1301" y="115.5" />
              <mxPoint x="1236" y="115.5" />
            </Array>
          </mxGeometry>
        </mxCell>
        <mxCell id="X5GNQbbb3iFWb6tz6MKN-180" value="" style="shape=line;html=1;strokeWidth=6;strokeColor=#432D57;fillColor=#76608a;fontColor=#ffffff;" parent="1" vertex="1">
          <mxGeometry x="1171" y="85.5" width="260" height="10" as="geometry" />
        </mxCell>
        <mxCell id="X5GNQbbb3iFWb6tz6MKN-181" style="edgeStyle=orthogonalEdgeStyle;rounded=0;orthogonalLoop=1;jettySize=auto;html=1;entryX=0.25;entryY=0.5;entryDx=0;entryDy=0;entryPerimeter=0;" parent="1" source="X5GNQbbb3iFWb6tz6MKN-2" target="X5GNQbbb3iFWb6tz6MKN-180" edge="1">
          <mxGeometry relative="1" as="geometry" />
        </mxCell>
        <mxCell id="X5GNQbbb3iFWb6tz6MKN-186" style="edgeStyle=orthogonalEdgeStyle;rounded=0;orthogonalLoop=1;jettySize=auto;html=1;entryX=0;entryY=0.5;entryDx=0;entryDy=0;" parent="1" source="X5GNQbbb3iFWb6tz6MKN-184" target="X5GNQbbb3iFWb6tz6MKN-16" edge="1">
          <mxGeometry relative="1" as="geometry">
            <Array as="points">
              <mxPoint x="1141" y="405.5" />
              <mxPoint x="1141" y="218.5" />
            </Array>
          </mxGeometry>
        </mxCell>
        <mxCell id="X5GNQbbb3iFWb6tz6MKN-184" value="Visualize Account" style="rounded=1;whiteSpace=wrap;html=1;arcSize=40;fontColor=#000000;fillColor=#A680B8;strokeColor=#A680B8;" parent="1" vertex="1">
          <mxGeometry x="1181" y="385.5" width="60" height="40" as="geometry" />
        </mxCell>
        <mxCell id="X5GNQbbb3iFWb6tz6MKN-189" value="PETSHOP ACTIVITY DIAGRAM" style="rounded=0;whiteSpace=wrap;html=1;" parent="1" vertex="1">
          <mxGeometry x="1051" y="-100" width="190" height="30" as="geometry" />
        </mxCell>
        <mxCell id="X5GNQbbb3iFWb6tz6MKN-191" value="" style="ellipse;html=1;shape=startState;fillColor=#000000;strokeColor=#6D8764;" parent="1" vertex="1">
          <mxGeometry x="1668" y="-9.999999999999996" width="30" height="30" as="geometry" />
        </mxCell>
        <mxCell id="X5GNQbbb3iFWb6tz6MKN-192" style="edgeStyle=orthogonalEdgeStyle;rounded=0;orthogonalLoop=1;jettySize=auto;html=1;exitX=0.5;exitY=1;exitDx=0;exitDy=0;" parent="1" edge="1">
          <mxGeometry relative="1" as="geometry">
            <mxPoint x="1777" y="17.5" as="sourcePoint" />
            <mxPoint x="1777" y="17.5" as="targetPoint" />
          </mxGeometry>
        </mxCell>
        <mxCell id="X5GNQbbb3iFWb6tz6MKN-193" value="" style="shape=note;whiteSpace=wrap;html=1;backgroundOutline=1;darkOpacity=0.05;fillColor=#6D8764;fontColor=#ffffff;strokeColor=#3A5431;" parent="1" vertex="1">
          <mxGeometry x="1739" y="-27.499999999999996" width="55" height="60" as="geometry" />
        </mxCell>
        <mxCell id="X5GNQbbb3iFWb6tz6MKN-194" style="edgeStyle=orthogonalEdgeStyle;rounded=0;orthogonalLoop=1;jettySize=auto;html=1;entryX=0.878;entryY=0.5;entryDx=0;entryDy=0;entryPerimeter=0;" parent="1" source="X5GNQbbb3iFWb6tz6MKN-195" target="X5GNQbbb3iFWb6tz6MKN-191" edge="1">
          <mxGeometry relative="1" as="geometry" />
        </mxCell>
        <mxCell id="X5GNQbbb3iFWb6tz6MKN-195" value="&lt;font style=&quot;font-size: 10px;&quot;&gt;&lt;font style=&quot;font-size: 10px;&quot; color=&quot;#000000&quot;&gt;Admin&lt;/font&gt;&lt;br style=&quot;color: rgb(0, 0, 0);&quot;&gt;&lt;span style=&quot;color: rgb(0, 0, 0);&quot;&gt;Open Interface&lt;/span&gt;&lt;/font&gt;" style="text;html=1;align=center;verticalAlign=middle;whiteSpace=wrap;rounded=0;" parent="1" vertex="1">
          <mxGeometry x="1739" y="-27.499999999999996" width="50" height="65" as="geometry" />
        </mxCell>
        <mxCell id="X5GNQbbb3iFWb6tz6MKN-196" style="edgeStyle=orthogonalEdgeStyle;rounded=0;orthogonalLoop=1;jettySize=auto;html=1;entryX=0.25;entryY=0;entryDx=0;entryDy=0;exitX=0.489;exitY=0.903;exitDx=0;exitDy=0;exitPerimeter=0;" parent="1" source="X5GNQbbb3iFWb6tz6MKN-191" target="X5GNQbbb3iFWb6tz6MKN-197" edge="1">
          <mxGeometry relative="1" as="geometry">
            <mxPoint x="1704" y="67.49999999999999" as="targetPoint" />
          </mxGeometry>
        </mxCell>
        <mxCell id="X5GNQbbb3iFWb6tz6MKN-203" style="edgeStyle=orthogonalEdgeStyle;rounded=0;orthogonalLoop=1;jettySize=auto;html=1;entryX=0;entryY=0.5;entryDx=0;entryDy=0;" parent="1" source="X5GNQbbb3iFWb6tz6MKN-197" target="X5GNQbbb3iFWb6tz6MKN-199" edge="1">
          <mxGeometry relative="1" as="geometry" />
        </mxCell>
        <mxCell id="X5GNQbbb3iFWb6tz6MKN-197" value="Autentification" style="rounded=1;whiteSpace=wrap;html=1;arcSize=40;fontColor=#000000;fillColor=#6D8764;strokeColor=none;" parent="1" vertex="1">
          <mxGeometry x="1662" y="92.5" width="80" height="20" as="geometry" />
        </mxCell>
        <mxCell id="X5GNQbbb3iFWb6tz6MKN-204" style="edgeStyle=orthogonalEdgeStyle;rounded=0;orthogonalLoop=1;jettySize=auto;html=1;entryX=0.75;entryY=0;entryDx=0;entryDy=0;" parent="1" source="X5GNQbbb3iFWb6tz6MKN-199" target="X5GNQbbb3iFWb6tz6MKN-197" edge="1">
          <mxGeometry relative="1" as="geometry">
            <Array as="points">
              <mxPoint x="1793" y="72.49999999999999" />
              <mxPoint x="1723" y="72.49999999999999" />
              <mxPoint x="1723" y="82.49999999999999" />
              <mxPoint x="1722" y="82.49999999999999" />
            </Array>
          </mxGeometry>
        </mxCell>
        <mxCell id="X5GNQbbb3iFWb6tz6MKN-205" value="nok" style="edgeLabel;html=1;align=center;verticalAlign=middle;resizable=0;points=[];" parent="X5GNQbbb3iFWb6tz6MKN-204" vertex="1" connectable="0">
          <mxGeometry x="0.0436" y="-2" relative="1" as="geometry">
            <mxPoint x="7" y="1" as="offset" />
          </mxGeometry>
        </mxCell>
        <mxCell id="X5GNQbbb3iFWb6tz6MKN-199" value="&lt;font style=&quot;font-size: 10px;&quot;&gt;Status?&lt;/font&gt;" style="rhombus;whiteSpace=wrap;html=1;fontColor=#000000;fillColor=#6D8764;strokeColor=none;" parent="1" vertex="1">
          <mxGeometry x="1770.5" y="82.49999999999999" width="45" height="40" as="geometry" />
        </mxCell>
        <mxCell id="X5GNQbbb3iFWb6tz6MKN-206" value="Manage&lt;br&gt;Accounts" style="rounded=1;whiteSpace=wrap;html=1;arcSize=40;fontColor=#000000;fillColor=#6D8764;strokeColor=none;" parent="1" vertex="1">
          <mxGeometry x="1816" y="189.00000000000003" width="80" height="40" as="geometry" />
        </mxCell>
        <mxCell id="X5GNQbbb3iFWb6tz6MKN-215" style="edgeStyle=orthogonalEdgeStyle;rounded=0;orthogonalLoop=1;jettySize=auto;html=1;exitX=0.924;exitY=0.762;exitDx=0;exitDy=0;exitPerimeter=0;entryX=0.5;entryY=0;entryDx=0;entryDy=0;" parent="1" source="X5GNQbbb3iFWb6tz6MKN-209" target="X5GNQbbb3iFWb6tz6MKN-206" edge="1">
          <mxGeometry relative="1" as="geometry" />
        </mxCell>
        <mxCell id="X5GNQbbb3iFWb6tz6MKN-209" value="" style="shape=line;html=1;strokeWidth=6;strokeColor=#6D8764;fillColor=#76608a;fontColor=#ffffff;" parent="1" vertex="1">
          <mxGeometry x="1643" y="152.5" width="241" height="10" as="geometry" />
        </mxCell>
        <mxCell id="X5GNQbbb3iFWb6tz6MKN-223" style="edgeStyle=orthogonalEdgeStyle;rounded=0;orthogonalLoop=1;jettySize=auto;html=1;exitX=0.188;exitY=0.5;exitDx=0;exitDy=0;exitPerimeter=0;entryX=0.5;entryY=0;entryDx=0;entryDy=0;" parent="1" source="X5GNQbbb3iFWb6tz6MKN-218" target="X5GNQbbb3iFWb6tz6MKN-221" edge="1">
          <mxGeometry relative="1" as="geometry">
            <Array as="points">
              <mxPoint x="1807.75" y="267.03999999999996" />
              <mxPoint x="1808.75" y="267.03999999999996" />
            </Array>
          </mxGeometry>
        </mxCell>
        <mxCell id="X5GNQbbb3iFWb6tz6MKN-281" style="edgeStyle=orthogonalEdgeStyle;rounded=0;orthogonalLoop=1;jettySize=auto;html=1;exitX=0.75;exitY=0.5;exitDx=0;exitDy=0;exitPerimeter=0;entryX=0.5;entryY=0;entryDx=0;entryDy=0;" parent="1" source="X5GNQbbb3iFWb6tz6MKN-218" target="X5GNQbbb3iFWb6tz6MKN-280" edge="1">
          <mxGeometry relative="1" as="geometry" />
        </mxCell>
        <mxCell id="X5GNQbbb3iFWb6tz6MKN-218" value="" style="shape=line;html=1;strokeWidth=6;strokeColor=#6D8764;fillColor=#76608a;fontColor=#ffffff;" parent="1" vertex="1">
          <mxGeometry x="1779.25" y="247.51999999999998" width="152.5" height="10" as="geometry" />
        </mxCell>
        <mxCell id="X5GNQbbb3iFWb6tz6MKN-221" value="UpdateUser" style="rounded=1;whiteSpace=wrap;html=1;arcSize=40;fontColor=#000000;fillColor=#6D8764;strokeColor=none;" parent="1" vertex="1">
          <mxGeometry x="1768.25" y="281.77" width="80" height="29" as="geometry" />
        </mxCell>
        <mxCell id="X5GNQbbb3iFWb6tz6MKN-225" value="" style="shape=line;html=1;strokeWidth=6;strokeColor=#6D8764;fillColor=#76608a;fontColor=#ffffff;" parent="1" vertex="1">
          <mxGeometry x="1779.25" y="337.52" width="152.5" height="10" as="geometry" />
        </mxCell>
        <mxCell id="X5GNQbbb3iFWb6tz6MKN-230" style="edgeStyle=orthogonalEdgeStyle;rounded=0;orthogonalLoop=1;jettySize=auto;html=1;entryX=0.506;entryY=0.54;entryDx=0;entryDy=0;entryPerimeter=0;" parent="1" source="X5GNQbbb3iFWb6tz6MKN-206" target="X5GNQbbb3iFWb6tz6MKN-218" edge="1">
          <mxGeometry relative="1" as="geometry">
            <Array as="points">
              <mxPoint x="1856" y="252.51999999999998" />
            </Array>
          </mxGeometry>
        </mxCell>
        <mxCell id="X5GNQbbb3iFWb6tz6MKN-231" style="edgeStyle=orthogonalEdgeStyle;rounded=0;orthogonalLoop=1;jettySize=auto;html=1;exitX=0.25;exitY=0.5;exitDx=0;exitDy=0;exitPerimeter=0;entryX=0.5;entryY=0;entryDx=0;entryDy=0;" parent="1" source="X5GNQbbb3iFWb6tz6MKN-233" target="X5GNQbbb3iFWb6tz6MKN-234" edge="1">
          <mxGeometry relative="1" as="geometry">
            <Array as="points">
              <mxPoint x="1654.5" y="217.75" />
              <mxPoint x="1631.5" y="217.75" />
            </Array>
          </mxGeometry>
        </mxCell>
        <mxCell id="X5GNQbbb3iFWb6tz6MKN-232" style="edgeStyle=orthogonalEdgeStyle;rounded=0;orthogonalLoop=1;jettySize=auto;html=1;exitX=0.75;exitY=0.5;exitDx=0;exitDy=0;exitPerimeter=0;entryX=0.5;entryY=0;entryDx=0;entryDy=0;" parent="1" source="X5GNQbbb3iFWb6tz6MKN-233" target="X5GNQbbb3iFWb6tz6MKN-235" edge="1">
          <mxGeometry relative="1" as="geometry">
            <Array as="points">
              <mxPoint x="1697.5" y="202.75000000000003" />
              <mxPoint x="1697.5" y="217.75" />
              <mxPoint x="1722.5" y="217.75" />
            </Array>
          </mxGeometry>
        </mxCell>
        <mxCell id="X5GNQbbb3iFWb6tz6MKN-233" value="" style="shape=line;html=1;strokeWidth=6;strokeColor=#6D8764;fillColor=#76608a;fontColor=#ffffff;" parent="1" vertex="1">
          <mxGeometry x="1632" y="197.75000000000003" width="89" height="10" as="geometry" />
        </mxCell>
        <mxCell id="X5GNQbbb3iFWb6tz6MKN-234" value="Delete&lt;br&gt;Statistics" style="rounded=1;whiteSpace=wrap;html=1;arcSize=40;fontColor=#000000;fillColor=#6D8764;strokeColor=none;" parent="1" vertex="1">
          <mxGeometry x="1591" y="233.25" width="80" height="29" as="geometry" />
        </mxCell>
        <mxCell id="X5GNQbbb3iFWb6tz6MKN-235" value="Visualize&lt;br&gt;Statistics" style="rounded=1;whiteSpace=wrap;html=1;arcSize=40;fontColor=#000000;fillColor=#6D8764;strokeColor=none;" parent="1" vertex="1">
          <mxGeometry x="1682" y="232.25" width="80" height="31" as="geometry" />
        </mxCell>
        <mxCell id="X5GNQbbb3iFWb6tz6MKN-236" value="" style="shape=line;html=1;strokeWidth=6;strokeColor=#6D8764;fillColor=#76608a;fontColor=#ffffff;" parent="1" vertex="1">
          <mxGeometry x="1632" y="287.75" width="89" height="10" as="geometry" />
        </mxCell>
        <mxCell id="X5GNQbbb3iFWb6tz6MKN-237" style="edgeStyle=orthogonalEdgeStyle;rounded=0;orthogonalLoop=1;jettySize=auto;html=1;exitX=0.5;exitY=1;exitDx=0;exitDy=0;entryX=0.514;entryY=0.524;entryDx=0;entryDy=0;entryPerimeter=0;" parent="1" source="X5GNQbbb3iFWb6tz6MKN-234" target="X5GNQbbb3iFWb6tz6MKN-236" edge="1">
          <mxGeometry relative="1" as="geometry">
            <Array as="points">
              <mxPoint x="1631" y="277.75" />
              <mxPoint x="1678" y="277.75" />
            </Array>
          </mxGeometry>
        </mxCell>
        <mxCell id="X5GNQbbb3iFWb6tz6MKN-238" style="edgeStyle=orthogonalEdgeStyle;rounded=0;orthogonalLoop=1;jettySize=auto;html=1;entryX=0.514;entryY=0.571;entryDx=0;entryDy=0;entryPerimeter=0;" parent="1" source="X5GNQbbb3iFWb6tz6MKN-235" target="X5GNQbbb3iFWb6tz6MKN-236" edge="1">
          <mxGeometry relative="1" as="geometry">
            <Array as="points">
              <mxPoint x="1722" y="277.75" />
              <mxPoint x="1678" y="277.75" />
            </Array>
          </mxGeometry>
        </mxCell>
        <mxCell id="X5GNQbbb3iFWb6tz6MKN-240" style="edgeStyle=orthogonalEdgeStyle;rounded=0;orthogonalLoop=1;jettySize=auto;html=1;entryX=0.508;entryY=0.539;entryDx=0;entryDy=0;entryPerimeter=0;" parent="1" source="X5GNQbbb3iFWb6tz6MKN-209" target="X5GNQbbb3iFWb6tz6MKN-233" edge="1">
          <mxGeometry relative="1" as="geometry">
            <mxPoint x="1677" y="202.5" as="targetPoint" />
            <Array as="points" />
          </mxGeometry>
        </mxCell>
        <mxCell id="X5GNQbbb3iFWb6tz6MKN-241" style="edgeStyle=orthogonalEdgeStyle;rounded=0;orthogonalLoop=1;jettySize=auto;html=1;endArrow=none;endFill=0;exitX=0.468;exitY=0.571;exitDx=0;exitDy=0;exitPerimeter=0;" parent="1" source="X5GNQbbb3iFWb6tz6MKN-236" edge="1">
          <mxGeometry relative="1" as="geometry">
            <mxPoint x="1674.5" y="287.75" as="sourcePoint" />
            <mxPoint x="1794" y="156.5" as="targetPoint" />
            <Array as="points">
              <mxPoint x="1674" y="312.5" />
              <mxPoint x="1584" y="312.5" />
              <mxPoint x="1584" y="132.5" />
              <mxPoint x="1794" y="132.5" />
            </Array>
          </mxGeometry>
        </mxCell>
        <mxCell id="X5GNQbbb3iFWb6tz6MKN-243" value="" style="ellipse;html=1;shape=startState;fillColor=#000000;strokeColor=#647687;" parent="1" vertex="1">
          <mxGeometry x="1659.13" y="410" width="30" height="30" as="geometry" />
        </mxCell>
        <mxCell id="X5GNQbbb3iFWb6tz6MKN-244" style="edgeStyle=orthogonalEdgeStyle;rounded=0;orthogonalLoop=1;jettySize=auto;html=1;exitX=0.5;exitY=1;exitDx=0;exitDy=0;" parent="1" edge="1">
          <mxGeometry relative="1" as="geometry">
            <mxPoint x="1768.13" y="437.5" as="sourcePoint" />
            <mxPoint x="1768.13" y="437.5" as="targetPoint" />
          </mxGeometry>
        </mxCell>
        <mxCell id="X5GNQbbb3iFWb6tz6MKN-245" value="" style="shape=note;whiteSpace=wrap;html=1;backgroundOutline=1;darkOpacity=0.05;fillColor=#647687;fontColor=#ffffff;strokeColor=none;" parent="1" vertex="1">
          <mxGeometry x="1730.13" y="391.5" width="55" height="60" as="geometry" />
        </mxCell>
        <mxCell id="X5GNQbbb3iFWb6tz6MKN-246" style="edgeStyle=orthogonalEdgeStyle;rounded=0;orthogonalLoop=1;jettySize=auto;html=1;entryX=0.878;entryY=0.5;entryDx=0;entryDy=0;entryPerimeter=0;" parent="1" target="X5GNQbbb3iFWb6tz6MKN-243" edge="1">
          <mxGeometry relative="1" as="geometry">
            <mxPoint x="1730.13" y="425" as="sourcePoint" />
          </mxGeometry>
        </mxCell>
        <mxCell id="X5GNQbbb3iFWb6tz6MKN-247" value="&lt;font style=&quot;font-size: 10px;&quot;&gt;&lt;font color=&quot;#000000&quot;&gt;Provider&lt;/font&gt;&lt;br style=&quot;color: rgb(0, 0, 0);&quot;&gt;&lt;span style=&quot;color: rgb(0, 0, 0);&quot;&gt;Open Interface&lt;/span&gt;&lt;/font&gt;" style="text;html=1;align=center;verticalAlign=middle;whiteSpace=wrap;rounded=0;" parent="1" vertex="1">
          <mxGeometry x="1730.13" y="391.5" width="50" height="65" as="geometry" />
        </mxCell>
        <mxCell id="X5GNQbbb3iFWb6tz6MKN-248" style="edgeStyle=orthogonalEdgeStyle;rounded=0;orthogonalLoop=1;jettySize=auto;html=1;entryX=0.25;entryY=0;entryDx=0;entryDy=0;exitX=0.489;exitY=0.903;exitDx=0;exitDy=0;exitPerimeter=0;" parent="1" source="X5GNQbbb3iFWb6tz6MKN-243" target="X5GNQbbb3iFWb6tz6MKN-250" edge="1">
          <mxGeometry relative="1" as="geometry">
            <mxPoint x="1695.13" y="486.5" as="targetPoint" />
          </mxGeometry>
        </mxCell>
        <mxCell id="X5GNQbbb3iFWb6tz6MKN-249" style="edgeStyle=orthogonalEdgeStyle;rounded=0;orthogonalLoop=1;jettySize=auto;html=1;entryX=0;entryY=0.5;entryDx=0;entryDy=0;" parent="1" source="X5GNQbbb3iFWb6tz6MKN-250" target="X5GNQbbb3iFWb6tz6MKN-253" edge="1">
          <mxGeometry relative="1" as="geometry" />
        </mxCell>
        <mxCell id="X5GNQbbb3iFWb6tz6MKN-250" value="Autentification" style="rounded=1;whiteSpace=wrap;html=1;arcSize=40;fontColor=#000000;fillColor=#647687;strokeColor=none;" parent="1" vertex="1">
          <mxGeometry x="1653.13" y="511.5" width="80" height="20" as="geometry" />
        </mxCell>
        <mxCell id="X5GNQbbb3iFWb6tz6MKN-251" style="edgeStyle=orthogonalEdgeStyle;rounded=0;orthogonalLoop=1;jettySize=auto;html=1;entryX=0.75;entryY=0;entryDx=0;entryDy=0;" parent="1" source="X5GNQbbb3iFWb6tz6MKN-253" target="X5GNQbbb3iFWb6tz6MKN-250" edge="1">
          <mxGeometry relative="1" as="geometry">
            <Array as="points">
              <mxPoint x="1784.13" y="491.5" />
              <mxPoint x="1714.13" y="491.5" />
              <mxPoint x="1714.13" y="501.5" />
              <mxPoint x="1713.13" y="501.5" />
            </Array>
          </mxGeometry>
        </mxCell>
        <mxCell id="X5GNQbbb3iFWb6tz6MKN-252" value="nok" style="edgeLabel;html=1;align=center;verticalAlign=middle;resizable=0;points=[];" parent="X5GNQbbb3iFWb6tz6MKN-251" vertex="1" connectable="0">
          <mxGeometry x="0.0436" y="-2" relative="1" as="geometry">
            <mxPoint x="7" y="1" as="offset" />
          </mxGeometry>
        </mxCell>
        <mxCell id="X5GNQbbb3iFWb6tz6MKN-296" style="edgeStyle=orthogonalEdgeStyle;rounded=0;orthogonalLoop=1;jettySize=auto;html=1;entryX=0.491;entryY=0.267;entryDx=0;entryDy=0;entryPerimeter=0;" parent="1" source="X5GNQbbb3iFWb6tz6MKN-253" target="X5GNQbbb3iFWb6tz6MKN-298" edge="1">
          <mxGeometry relative="1" as="geometry">
            <mxPoint x="1784.1350000000002" y="571.5" as="targetPoint" />
          </mxGeometry>
        </mxCell>
        <mxCell id="X5GNQbbb3iFWb6tz6MKN-297" value="ok" style="edgeLabel;html=1;align=center;verticalAlign=middle;resizable=0;points=[];" parent="X5GNQbbb3iFWb6tz6MKN-296" vertex="1" connectable="0">
          <mxGeometry x="0.1919" y="-1" relative="1" as="geometry">
            <mxPoint x="1" y="-10" as="offset" />
          </mxGeometry>
        </mxCell>
        <mxCell id="X5GNQbbb3iFWb6tz6MKN-253" value="&lt;font style=&quot;font-size: 10px;&quot;&gt;Status?&lt;/font&gt;" style="rhombus;whiteSpace=wrap;html=1;fontColor=#000000;fillColor=#647687;strokeColor=none;" parent="1" vertex="1">
          <mxGeometry x="1761.63" y="501.5" width="45" height="40" as="geometry" />
        </mxCell>
        <mxCell id="X5GNQbbb3iFWb6tz6MKN-280" value="Add Provider" style="rounded=1;whiteSpace=wrap;html=1;arcSize=40;fontColor=#000000;fillColor=#6D8764;strokeColor=none;" parent="1" vertex="1">
          <mxGeometry x="1863.75" y="279.77" width="80" height="31" as="geometry" />
        </mxCell>
        <mxCell id="X5GNQbbb3iFWb6tz6MKN-288" style="edgeStyle=orthogonalEdgeStyle;rounded=0;orthogonalLoop=1;jettySize=auto;html=1;entryX=0.555;entryY=0.272;entryDx=0;entryDy=0;entryPerimeter=0;exitX=0.5;exitY=1;exitDx=0;exitDy=0;" parent="1" source="X5GNQbbb3iFWb6tz6MKN-280" target="X5GNQbbb3iFWb6tz6MKN-225" edge="1">
          <mxGeometry relative="1" as="geometry">
            <Array as="points">
              <mxPoint x="1903.75" y="325.03999999999996" />
              <mxPoint x="1863.75" y="325.03999999999996" />
            </Array>
          </mxGeometry>
        </mxCell>
        <mxCell id="X5GNQbbb3iFWb6tz6MKN-290" style="edgeStyle=orthogonalEdgeStyle;rounded=0;orthogonalLoop=1;jettySize=auto;html=1;endArrow=none;endFill=0;" parent="1" edge="1">
          <mxGeometry relative="1" as="geometry">
            <mxPoint x="1864" y="342.52" as="sourcePoint" />
            <mxPoint x="1794" y="152.52" as="targetPoint" />
            <Array as="points">
              <mxPoint x="1864" y="352.52" />
              <mxPoint x="1964" y="352.52" />
              <mxPoint x="1964" y="132.52" />
              <mxPoint x="1794" y="132.52" />
            </Array>
          </mxGeometry>
        </mxCell>
        <mxCell id="X5GNQbbb3iFWb6tz6MKN-211" style="edgeStyle=orthogonalEdgeStyle;rounded=0;orthogonalLoop=1;jettySize=auto;html=1;entryX=0.63;entryY=0.45;entryDx=0;entryDy=0;entryPerimeter=0;" parent="1" source="X5GNQbbb3iFWb6tz6MKN-199" target="X5GNQbbb3iFWb6tz6MKN-209" edge="1">
          <mxGeometry relative="1" as="geometry">
            <Array as="points">
              <mxPoint x="1793" y="132.5" />
              <mxPoint x="1794" y="132.5" />
              <mxPoint x="1794" y="157.5" />
            </Array>
          </mxGeometry>
        </mxCell>
        <mxCell id="X5GNQbbb3iFWb6tz6MKN-212" value="ok" style="edgeLabel;html=1;align=center;verticalAlign=middle;resizable=0;points=[];" parent="X5GNQbbb3iFWb6tz6MKN-211" vertex="1" connectable="0">
          <mxGeometry x="-0.2832" relative="1" as="geometry">
            <mxPoint y="-2" as="offset" />
          </mxGeometry>
        </mxCell>
        <mxCell id="X5GNQbbb3iFWb6tz6MKN-303" style="edgeStyle=orthogonalEdgeStyle;rounded=0;orthogonalLoop=1;jettySize=auto;html=1;entryX=0.5;entryY=0;entryDx=0;entryDy=0;" parent="1" source="X5GNQbbb3iFWb6tz6MKN-298" target="X5GNQbbb3iFWb6tz6MKN-302" edge="1">
          <mxGeometry relative="1" as="geometry">
            <Array as="points">
              <mxPoint x="1784.88" y="581.5" />
              <mxPoint x="1729.88" y="581.5" />
            </Array>
          </mxGeometry>
        </mxCell>
        <mxCell id="X5GNQbbb3iFWb6tz6MKN-305" style="edgeStyle=orthogonalEdgeStyle;rounded=0;orthogonalLoop=1;jettySize=auto;html=1;entryX=0.5;entryY=0;entryDx=0;entryDy=0;" parent="1" source="X5GNQbbb3iFWb6tz6MKN-298" target="X5GNQbbb3iFWb6tz6MKN-304" edge="1">
          <mxGeometry relative="1" as="geometry">
            <Array as="points">
              <mxPoint x="1784.88" y="581.5" />
              <mxPoint x="1832.88" y="581.5" />
            </Array>
          </mxGeometry>
        </mxCell>
        <mxCell id="X5GNQbbb3iFWb6tz6MKN-298" value="" style="shape=line;html=1;strokeWidth=6;strokeColor=#647687;fillColor=#76608a;fontColor=#ffffff;" parent="1" vertex="1">
          <mxGeometry x="1717.64" y="561.5" width="135" height="10" as="geometry" />
        </mxCell>
        <mxCell id="X5GNQbbb3iFWb6tz6MKN-302" value="Visualize Stocks" style="rounded=1;whiteSpace=wrap;html=1;arcSize=40;fontColor=#000000;fillColor=#647687;strokeColor=none;" parent="1" vertex="1">
          <mxGeometry x="1682.88" y="601.5" width="93.75" height="20" as="geometry" />
        </mxCell>
        <mxCell id="X5GNQbbb3iFWb6tz6MKN-304" value="Add Product" style="rounded=1;whiteSpace=wrap;html=1;arcSize=40;fontColor=#000000;fillColor=#647687;strokeColor=none;" parent="1" vertex="1">
          <mxGeometry x="1786.13" y="601.5" width="93.75" height="20" as="geometry" />
        </mxCell>
        <mxCell id="X5GNQbbb3iFWb6tz6MKN-306" value="" style="shape=line;html=1;strokeWidth=6;strokeColor=#647687;fillColor=#76608a;fontColor=#ffffff;" parent="1" vertex="1">
          <mxGeometry x="1717.64" y="637.5" width="135" height="10" as="geometry" />
        </mxCell>
        <mxCell id="X5GNQbbb3iFWb6tz6MKN-307" style="edgeStyle=orthogonalEdgeStyle;rounded=0;orthogonalLoop=1;jettySize=auto;html=1;entryX=0.518;entryY=0.533;entryDx=0;entryDy=0;entryPerimeter=0;" parent="1" source="X5GNQbbb3iFWb6tz6MKN-302" target="X5GNQbbb3iFWb6tz6MKN-306" edge="1">
          <mxGeometry relative="1" as="geometry">
            <Array as="points">
              <mxPoint x="1729.88" y="627.5" />
              <mxPoint x="1787.88" y="627.5" />
            </Array>
          </mxGeometry>
        </mxCell>
        <mxCell id="X5GNQbbb3iFWb6tz6MKN-309" style="edgeStyle=orthogonalEdgeStyle;rounded=0;orthogonalLoop=1;jettySize=auto;html=1;entryX=0.518;entryY=0.544;entryDx=0;entryDy=0;entryPerimeter=0;endArrow=none;endFill=0;" parent="1" source="X5GNQbbb3iFWb6tz6MKN-304" target="X5GNQbbb3iFWb6tz6MKN-306" edge="1">
          <mxGeometry relative="1" as="geometry">
            <Array as="points">
              <mxPoint x="1832.88" y="627.5" />
              <mxPoint x="1787.88" y="627.5" />
            </Array>
          </mxGeometry>
        </mxCell>
        <mxCell id="X5GNQbbb3iFWb6tz6MKN-310" style="edgeStyle=orthogonalEdgeStyle;rounded=0;orthogonalLoop=1;jettySize=auto;html=1;entryX=0.492;entryY=0.288;entryDx=0;entryDy=0;entryPerimeter=0;endArrow=none;endFill=0;" parent="1" source="X5GNQbbb3iFWb6tz6MKN-306" target="X5GNQbbb3iFWb6tz6MKN-298" edge="1">
          <mxGeometry relative="1" as="geometry">
            <Array as="points">
              <mxPoint x="1784.88" y="657.5" />
              <mxPoint x="1674.88" y="657.5" />
              <mxPoint x="1674.88" y="557.5" />
              <mxPoint x="1784.88" y="557.5" />
              <mxPoint x="1784.88" y="564.5" />
            </Array>
          </mxGeometry>
        </mxCell>
        <mxCell id="X5GNQbbb3iFWb6tz6MKN-315" value="Admin Activity Diagram" style="rounded=0;whiteSpace=wrap;html=1;" parent="1" vertex="1">
          <mxGeometry x="1546.5" y="-40" width="145.5" height="30" as="geometry" />
        </mxCell>
        <mxCell id="X5GNQbbb3iFWb6tz6MKN-316" value="Provider Activity Diagram" style="rounded=0;whiteSpace=wrap;html=1;" parent="1" vertex="1">
          <mxGeometry x="1546.5" y="381.5" width="145.5" height="30" as="geometry" />
        </mxCell>
        <mxCell id="4Hxy9zCTup2Anvg5lc2v-1" style="edgeStyle=orthogonalEdgeStyle;rounded=0;orthogonalLoop=1;jettySize=auto;html=1;entryX=0.557;entryY=0.181;entryDx=0;entryDy=0;entryPerimeter=0;" parent="1" source="X5GNQbbb3iFWb6tz6MKN-221" target="X5GNQbbb3iFWb6tz6MKN-225" edge="1">
          <mxGeometry relative="1" as="geometry">
            <Array as="points">
              <mxPoint x="1808" y="320" />
              <mxPoint x="1864" y="320" />
            </Array>
          </mxGeometry>
        </mxCell>
        <mxCell id="5kmShxWH9AS1d7PE3-GX-1" value="" style="rounded=0;whiteSpace=wrap;html=1;" vertex="1" parent="1">
          <mxGeometry x="227.5" y="970" width="600" height="470" as="geometry" />
        </mxCell>
        <mxCell id="5kmShxWH9AS1d7PE3-GX-10" style="edgeStyle=orthogonalEdgeStyle;rounded=0;orthogonalLoop=1;jettySize=auto;html=1;exitX=0.5;exitY=1;exitDx=0;exitDy=0;entryX=0.5;entryY=0;entryDx=0;entryDy=0;" edge="1" parent="1" source="5kmShxWH9AS1d7PE3-GX-5" target="5kmShxWH9AS1d7PE3-GX-6">
          <mxGeometry relative="1" as="geometry" />
        </mxCell>
        <mxCell id="5kmShxWH9AS1d7PE3-GX-5" value="Bussiness" style="rounded=0;whiteSpace=wrap;html=1;" vertex="1" parent="1">
          <mxGeometry x="242.5" y="1100" width="570" height="90" as="geometry" />
        </mxCell>
        <mxCell id="5kmShxWH9AS1d7PE3-GX-6" value="Persistance" style="rounded=0;whiteSpace=wrap;html=1;" vertex="1" parent="1">
          <mxGeometry x="242.5" y="1220" width="570" height="90" as="geometry" />
        </mxCell>
        <mxCell id="5kmShxWH9AS1d7PE3-GX-7" value="DB" style="shape=cylinder3;whiteSpace=wrap;html=1;boundedLbl=1;backgroundOutline=1;size=15;" vertex="1" parent="1">
          <mxGeometry x="497.5" y="1340" width="60" height="80" as="geometry" />
        </mxCell>
        <mxCell id="5kmShxWH9AS1d7PE3-GX-8" style="edgeStyle=orthogonalEdgeStyle;rounded=0;orthogonalLoop=1;jettySize=auto;html=1;exitX=0.5;exitY=1;exitDx=0;exitDy=0;entryX=0.5;entryY=0;entryDx=0;entryDy=0;entryPerimeter=0;" edge="1" parent="1" source="5kmShxWH9AS1d7PE3-GX-6" target="5kmShxWH9AS1d7PE3-GX-7">
          <mxGeometry relative="1" as="geometry" />
        </mxCell>
        <mxCell id="5kmShxWH9AS1d7PE3-GX-11" style="edgeStyle=orthogonalEdgeStyle;rounded=0;orthogonalLoop=1;jettySize=auto;html=1;exitX=0.5;exitY=1;exitDx=0;exitDy=0;entryX=0.5;entryY=0;entryDx=0;entryDy=0;" edge="1" parent="1" source="5kmShxWH9AS1d7PE3-GX-9" target="5kmShxWH9AS1d7PE3-GX-5">
          <mxGeometry relative="1" as="geometry" />
        </mxCell>
        <mxCell id="5kmShxWH9AS1d7PE3-GX-9" value="Backend API" style="rounded=0;whiteSpace=wrap;html=1;" vertex="1" parent="1">
          <mxGeometry x="242.5" y="980" width="570" height="90" as="geometry" />
        </mxCell>
        <mxCell id="5kmShxWH9AS1d7PE3-GX-12" value="" style="rounded=0;whiteSpace=wrap;html=1;" vertex="1" parent="1">
          <mxGeometry x="229.5" y="780" width="600" height="130" as="geometry" />
        </mxCell>
        <mxCell id="5kmShxWH9AS1d7PE3-GX-13" value="Frontend API" style="rounded=0;whiteSpace=wrap;html=1;" vertex="1" parent="1">
          <mxGeometry x="242" y="790" width="570" height="50" as="geometry" />
        </mxCell>
        <mxCell id="5kmShxWH9AS1d7PE3-GX-15" style="edgeStyle=orthogonalEdgeStyle;rounded=0;orthogonalLoop=1;jettySize=auto;html=1;exitX=0.5;exitY=1;exitDx=0;exitDy=0;entryX=0.5;entryY=0;entryDx=0;entryDy=0;" edge="1" parent="1" source="5kmShxWH9AS1d7PE3-GX-14" target="5kmShxWH9AS1d7PE3-GX-9">
          <mxGeometry relative="1" as="geometry" />
        </mxCell>
        <mxCell id="5kmShxWH9AS1d7PE3-GX-16" value="REST API" style="edgeLabel;html=1;align=center;verticalAlign=middle;resizable=0;points=[];" vertex="1" connectable="0" parent="5kmShxWH9AS1d7PE3-GX-15">
          <mxGeometry x="-0.1056" relative="1" as="geometry">
            <mxPoint as="offset" />
          </mxGeometry>
        </mxCell>
        <mxCell id="5kmShxWH9AS1d7PE3-GX-14" value="Operations" style="rounded=0;whiteSpace=wrap;html=1;" vertex="1" parent="1">
          <mxGeometry x="242" y="850" width="570" height="50" as="geometry" />
        </mxCell>
      </root>
    </mxGraphModel>
  </diagram>
</mxfile>
